<?xml version="1.0" encoding="utf-8"?>
<!-- Generator: Adobe Illustrator 21.0.2, SVG Export Plug-In . SVG Version: 6.00 Build 0)  -->
<svg version="1.1"
	 id="svg6783" inkscape:version="0.91 r13725" sodipodi:docname="BCIBox_acrylic_layout_v2_ganglion_headers1.svg" xmlns:cc="http://creativecommons.org/ns#" xmlns:dc="http://purl.org/dc/elements/1.1/" xmlns:inkscape="http://www.inkscape.org/namespaces/inkscape" xmlns:rdf="http://www.w3.org/1999/02/22-rdf-syntax-ns#" xmlns:sodipodi="http://sodipodi.sourceforge.net/DTD/sodipodi-0.dtd" xmlns:svg="http://www.w3.org/2000/svg"
	 xmlns="http://www.w3.org/2000/svg" xmlns:xlink="http://www.w3.org/1999/xlink" x="0px" y="0px" viewBox="0 0 792 612"
	 style="enable-background:new 0 0 792 612;" xml:space="preserve">
<style type="text/css">
	.st0{display:none;}
	.st1{fill:none;stroke:#000000;stroke-width:1.000000e-02;stroke-miterlimit:10;}
	.st2{fill:none;stroke:#00FF00;stroke-width:0.3543;stroke-linecap:round;stroke-linejoin:round;}
</style>
<sodipodi:namedview  bordercolor="#666666" borderopacity="1.0" id="base" inkscape:current-layer="layer1" inkscape:cx="192.8581" inkscape:cy="378.92838" inkscape:document-units="px" inkscape:guide-bbox="true" inkscape:pageopacity="0.0" inkscape:pageshadow="2" inkscape:window-height="876" inkscape:window-maximized="1" inkscape:window-width="1535" inkscape:window-x="65" inkscape:window-y="24" inkscape:zoom="0.924183" pagecolor="#ffffff" showgrid="false" showguides="true" units="in">
	<sodipodi:guide  id="guide4161" orientation="0,1" position="320.96597,390.20893"></sodipodi:guide>
</sodipodi:namedview>
<g id="layer3" inkscape:groupmode="layer" inkscape:label="Ganglion layout" class="st0">
</g>
<g id="layer1" transform="translate(0,-287.3622)" inkscape:groupmode="layer" inkscape:label="Layer 1">
	<path id="path4219" inkscape:connector-curvature="0" class="st1" d="M212.7,486.8l-58.9,58.9v35.4H168c0.8,0,1.6,0.2,2.3,0.5
		c0.7,0.3,1.4,0.7,1.9,1.3c0.5,0.5,1,1.2,1.3,1.9s0.5,1.5,0.5,2.3s-0.2,1.6-0.5,2.3c-0.3,0.7-0.7,1.4-1.3,1.9s-1.2,1-1.9,1.3
		c-0.7,0.3-1.5,0.5-2.3,0.5h-14.2v35.9l58.9,58.9h83.4l58.9-58.9v-35.7h-14.1c-0.8,0-1.6-0.2-2.3-0.5c-0.7-0.3-1.4-0.7-1.9-1.3
		c-0.5-0.5-1-1.2-1.3-1.9s-0.5-1.5-0.5-2.3c0-0.8,0.2-1.6,0.5-2.3c0.3-0.7,0.7-1.4,1.3-1.9c0.5-0.5,1.2-1,1.9-1.3
		c0.7-0.3,1.5-0.5,2.3-0.5h14.1v-35.6l-58.9-58.9H212.7z M261.7,494.8c0.2,0,0.5,0,0.7,0c3.5,0.1,6.7,2.2,8.4,5.3
		c0.4,0.7,0.9,1.1,1.8,1.2c3.8,0.7,7.3,0.9,10.9,2.2c2.9,1.1,4.9,3.5,4.9,6c0,2.8-2.3,5.1-5.1,5.1c-0.7,0-1.8-0.1-3.2-1
		c-0.9-0.6-1.1-1.2-2-1.6c-1.5-0.5-2.9,0-6.7-0.7c-0.3,0-0.5-0.1-0.8-0.2c-0.6-0.1-1.2,0-1.6,0.7c-1.2,1.1-2.7,2-4.2,2.4
		c-5.3,1.4-10.7-1.7-12.2-7c-1.4-5.3,1.7-10.7,7-12.2C260.2,494.9,261,494.8,261.7,494.8L261.7,494.8z M225.2,504.2
		c1.7,0.1,3.3,0.7,4.3,2c1.8,2.1,1.6,5.4-0.6,7.2c-0.5,0.4-1.4,1.1-3,1.3c-1.1,0.1-1.6-0.2-2.5,0.1c-1.5,0.5-2.2,1.9-5.6,3.9
		c-0.2,0.1-0.5,0.2-0.7,0.4c-0.5,0.4-0.9,0.8-0.8,1.6c-0.2,1.6-0.7,3.2-1.7,4.6c-3.1,4.5-9.3,5.7-13.8,2.6
		c-4.5-3.1-5.7-9.3-2.6-13.8c0.6-0.8,1.2-1.5,2-2.2c2.8-2.2,6.5-2.7,9.8-1.4c0.7,0.3,1.4,0.3,2.1-0.2c3.4-2,6.1-4.1,9.7-5.4
		C223,504.3,224.2,504.1,225.2,504.2z M302.5,645.4c1.9,0,3.8,0.6,5.5,1.7c4.5,3.1,5.7,9.3,2.6,13.8c-0.6,0.8-1.2,1.5-2,2.2
		c-2.8,2.2-6.5,2.7-9.8,1.4c-0.7-0.3-1.4-0.3-2.1,0.2c-3.4,2-6.1,4.1-9.7,5.4c-3,1.1-5.9,0.5-7.6-1.4c-1.8-2.1-1.6-5.4,0.6-7.2
		c0.5-0.4,1.4-1.1,3-1.3c1.1-0.1,1.6,0.2,2.5-0.1c1.5-0.5,2.2-1.9,5.6-3.9c0.2-0.1,0.5-0.2,0.7-0.4c0.5-0.4,0.9-0.8,0.8-1.6
		c0.2-1.6,0.7-3.2,1.7-4.6C296.1,646.9,299.3,645.4,302.5,645.4z M247.2,660.3c4.2,0.2,8,3,9.2,7.3c1.4,5.3-1.7,10.7-7,12.2
		c-1,0.3-2,0.4-2.9,0.3c-3.5-0.1-6.7-2.2-8.4-5.3c-0.4-0.7-0.9-1.1-1.8-1.2c-3.8-0.7-7.3-0.9-10.9-2.2c-2.9-1.1-4.9-3.5-4.9-6
		c0-2.8,2.3-5.1,5.1-5.1c0.7,0,1.8,0.1,3.2,1c0.9,0.6,1.1,1.2,2,1.6c1.5,0.5,2.9,0,6.7,0.7c0.3,0,0.5,0.1,0.8,0.2
		c0.6,0.1,1.2,0,1.6-0.7c1.2-1.1,2.6-2,4.2-2.4C245.2,660.4,246.2,660.3,247.2,660.3z"/>
	
		<path id="face0-cut-5" inkscape:connector-curvature="0" sodipodi:nodetypes="cccccsssssssssscccccccccccccccccccccccccccccssssssssss" class="st1" d="
		M567.7,498.2v178.6h74V498.2H567.7z M575.8,504.4c2.8,0,5.1,2.3,5.1,5.1c0,2.8-2.3,5.1-5.1,5.1c-2.8,0-5.1-2.3-5.1-5.1
		C570.7,506.7,573,504.4,575.8,504.4z M633.4,504.4c2.8,0,5.1,2.3,5.1,5.1c0,2.8-2.3,5.1-5.1,5.1c-2.8,0-5.1-2.3-5.1-5.1
		C628.3,506.7,630.6,504.4,633.4,504.4z M593,660.5l-4.8-0.6l-4.5-1.9l-3.8-3l-3-3.8l-1.9-4.5l-0.6-4.8v-41.6l0.6-4.8l1.9-4.5l3-3.8
		l3.8-3l4.5-1.9l4.8-0.6h23.5l4.8,0.6l4.5,1.9l3.8,3l3,3.8l1.9,4.5l0.6,4.8v41.6l-0.6,4.8l-1.9,4.5l-3,3.8l-3.8,3l-4.5,1.9l-4.8,0.6
		H593z M633.4,660.3c2.8,0,5.1,2.3,5.1,5.1c0,2.8-2.3,5.1-5.1,5.1c-2.8,0-5.1-2.3-5.1-5.1C628.3,662.6,630.6,660.3,633.4,660.3z
		 M575.8,660.3c2.8,0,5.1,2.3,5.1,5.1c0,2.8-2.3,5.1-5.1,5.1c-2.8,0-5.1-2.3-5.1-5.1C570.7,662.6,573,660.3,575.8,660.3z"/>
	
		<path id="face0-cut" inkscape:connector-curvature="0" sodipodi:nodetypes="cccccccccssssssssssssssssssssssssssssssscsssscccsssssssssssss" class="st1" d="
		M419.7,486.8l-58.9,58.9v83.4l58.9,58.9H503l58.9-58.9v-83.4L503,486.8H419.7z M432.6,504.4c2.8,0,5.1,2.3,5.1,5.1
		c0,2.8-2.3,5.1-5.1,5.1c-2.8,0-5.1-2.3-5.1-5.1C427.4,506.7,429.7,504.4,432.6,504.4z M490.2,504.4c2.8,0,5.1,2.3,5.1,5.1
		c0,2.8-2.3,5.1-5.1,5.1c-2.8,0-5.1-2.3-5.1-5.1C485,506.7,487.3,504.4,490.2,504.4z M479.3,511.3c1,0,2,0.4,2.8,1.2l11.4,11.4
		c1.6,1.6,1.6,4.1,0,5.7l-41.8,41.8c-1.6,1.6-4.1,1.6-5.7,0l-11.4-11.4c-1.6-1.6-1.6-4.1,0-5.7l41.8-41.8
		C477.3,511.7,478.3,511.3,479.3,511.3z M473.2,564h22.3c2.2,0,4,1.8,4,4v54.6c0,2.2-1.8,4-4,4h-22.3c-2.2,0-4-1.8-4-4V568
		C469.2,565.8,471,564,473.2,564z M395.3,616.8c1,0,2,0.4,2.8,1.2l8.8,8.8h43.8c2.2,0,4,1.8,4,4v22.8c0,2.2-1.8,4-4,4h-37.2
		c-1.4,0.1-2.9,0.1-4-1l-25-25c-1.6-1.6-1.6-4.1,0-5.7l8-8C393.2,617.2,394.3,616.8,395.3,616.8z M490.2,660.3
		c2.8,0,5.1,2.3,5.1,5.1c0,2.8-2.3,5.1-5.1,5.1c-2.8,0-5.1-2.3-5.1-5.1C485,662.6,487.3,660.3,490.2,660.3z M432.6,660.3
		c2.8,0,5.1,2.3,5.1,5.1c0,2.8-2.3,5.1-5.1,5.1c-2.8,0-5.1-2.3-5.1-5.1C427.5,662.6,429.7,660.3,432.6,660.3z"/>
	<path id="path8-5" inkscape:connector-curvature="0" class="st2" d="M441,510.9"/>
	<g id="flowRoot4354" transform="matrix(0.70710678,0.70710678,-0.70710678,0.70710678,505.60781,116.90317)">
	</g>
</g>
<g id="layer2" inkscape:groupmode="layer" inkscape:label="Ganglion cutouts">
</g>
</svg>
